<?xml version="1.0" encoding="utf-8"?>
<svg xmlns="http://www.w3.org/2000/svg"
	xmlns:xlink="http://www.w3.org/1999/xlink"
	width="32px" height="32px" viewBox="0 0 32 32">
<path fillRule="evenodd" d="M 16 32C 7.16 32-0 24.84-0 16-0 7.16 7.16-0 16-0 24.84-0 32 7.16 32 16 32 24.84 24.84 32 16 32ZM 16 3C 8.82 3 3 8.82 3 16 3 23.18 8.82 29 16 29 23.18 29 29 23.18 29 16 29 8.82 23.18 3 16 3ZM 16 25.5C 10.75 25.5 6.5 21.24 6.5 16 6.5 10.75 10.75 6.5 16 6.5 21.25 6.5 25.5 10.75 25.5 16 25.5 21.24 21.25 25.5 16 25.5ZM 16 9.5C 12.41 9.5 9.5 12.41 9.5 16 9.5 19.59 12.41 22.5 16 22.5 19.59 22.5 22.5 19.59 22.5 16 22.5 12.41 19.59 9.5 16 9.5ZM 16 19C 14.34 19 13 17.66 13 16 13 14.34 14.34 13 16 13 17.66 13 19 14.34 19 16 19 17.66 17.66 19 16 19Z" fill="rgb(149,225,211)"/></svg>