<?xml version="1.0" encoding="utf-8"?>
<svg xmlns="http://www.w3.org/2000/svg"
	xmlns:xlink="http://www.w3.org/1999/xlink"
	width="28px" height="32px" viewBox="0 0 28 32">
<path fillRule="evenodd" d="M 26.5 16.5C 26.5 16.5 23.5 16.5 23.5 16.5 22.67 16.5 22 15.83 22 15 22 15 22 9 22 9 22 8.17 22.67 7.5 23.5 7.5 23.5 7.5 26.5 7.5 26.5 7.5 27.33 7.5 28 8.17 28 9 28 9 28 15 28 15 28 15.83 27.33 16.5 26.5 16.5ZM 23.5 1.5C 23.5 0.67 24.17-0 25-0 25.83-0 26.5 0.67 26.5 1.5 26.5 1.5 26.5 6 26.5 6 26.5 6 23.5 6 23.5 6 23.5 6 23.5 1.5 23.5 1.5ZM 15.5 24.5C 15.5 24.5 12.5 24.5 12.5 24.5 11.67 24.5 11 23.83 11 23 11 23 11 17 11 17 11 16.17 11.67 15.5 12.5 15.5 12.5 15.5 15.5 15.5 15.5 15.5 16.33 15.5 17 16.17 17 17 17 17 17 23 17 23 17 23.83 16.33 24.5 15.5 24.5ZM 12.5 1.5C 12.5 0.67 13.17-0 14-0 14.83-0 15.5 0.67 15.5 1.5 15.5 1.5 15.5 14 15.5 14 15.5 14 12.5 14 12.5 14 12.5 14 12.5 1.5 12.5 1.5ZM 4.5 20.5C 4.5 20.5 1.5 20.5 1.5 20.5 0.67 20.5-0 19.83-0 19-0 19-0 13-0 13-0 12.17 0.67 11.5 1.5 11.5 1.5 11.5 4.5 11.5 4.5 11.5 5.33 11.5 6 12.17 6 13 6 13 6 19 6 19 6 19.83 5.33 20.5 4.5 20.5ZM 1.5 1.5C 1.5 0.67 2.17-0 3-0 3.83-0 4.5 0.67 4.5 1.5 4.5 1.5 4.5 10 4.5 10 4.5 10 1.5 10 1.5 10 1.5 10 1.5 1.5 1.5 1.5ZM 4.5 30.5C 4.5 31.33 3.83 32 3 32 2.17 32 1.5 31.33 1.5 30.5 1.5 30.5 1.5 22 1.5 22 1.5 22 4.5 22 4.5 22 4.5 22 4.5 30.5 4.5 30.5ZM 15.5 30.5C 15.5 31.33 14.83 32 14 32 13.17 32 12.5 31.33 12.5 30.5 12.5 30.5 12.5 26 12.5 26 12.5 26 15.5 26 15.5 26 15.5 26 15.5 30.5 15.5 30.5ZM 26.5 30.5C 26.5 31.33 25.83 32 25 32 24.17 32 23.5 31.33 23.5 30.5 23.5 30.5 23.5 18 23.5 18 23.5 18 26.5 18 26.5 18 26.5 18 26.5 30.5 26.5 30.5Z" fill="rgb(149,225,211)"/></svg>