<?xml version="1.0" encoding="utf-8"?>
<svg xmlns="http://www.w3.org/2000/svg"
	xmlns:xlink="http://www.w3.org/1999/xlink"
	width="30px" height="30px" viewBox="0 0 30 30">
<path fillRule="evenodd" d="M 30 24C 30 24.65 29.58 25.2 29 25.41 29 25.41 29 27.09 29 27.09 29.58 27.3 30 27.85 30 28.5 30 29.33 29.33 30 28.5 30 27.85 30 27.3 29.58 27.09 29 27.09 29 25.41 29 25.41 29 25.2 29.58 24.65 30 24 30 23.35 30 22.8 29.58 22.59 29 22.59 29 20.91 29 20.91 29 20.7 29.58 20.15 30 19.5 30 18.85 30 18.3 29.58 18.09 29 18.09 29 16.41 29 16.41 29 16.2 29.58 15.65 30 15 30 14.35 30 13.8 29.58 13.59 29 13.59 29 11.91 29 11.91 29 11.7 29.58 11.15 30 10.5 30 9.85 30 9.3 29.58 9.09 29 9.09 29 7.41 29 7.41 29 7.2 29.58 6.65 30 6 30 5.35 30 4.8 29.58 4.59 29 4.59 29 2.91 29 2.91 29 2.7 29.58 2.15 30 1.5 30 0.67 30-0 29.33-0 28.5-0 27.85 0.42 27.3 1 27.09 1 27.09 1 25.41 1 25.41 0.42 25.2-0 24.65-0 24-0 23.35 0.42 22.8 1 22.59 1 22.59 1 20.91 1 20.91 0.42 20.7-0 20.15-0 19.5-0 18.85 0.42 18.3 1 18.09 1 18.09 1 16.41 1 16.41 0.42 16.2-0 15.65-0 15-0 14.35 0.42 13.8 1 13.59 1 13.59 1 11.91 1 11.91 0.42 11.7-0 11.15-0 10.5-0 9.85 0.42 9.3 1 9.09 1 9.09 1 7.41 1 7.41 0.42 7.2-0 6.65-0 6-0 5.35 0.42 4.8 1 4.59 1 4.59 1 2.91 1 2.91 0.42 2.7-0 2.15-0 1.5-0 0.67 0.67-0 1.5-0 2.15-0 2.7 0.42 2.91 1 2.91 1 4.59 1 4.59 1 4.8 0.42 5.35-0 6-0 6.65-0 7.2 0.42 7.41 1 7.41 1 9.09 1 9.09 1 9.3 0.42 9.85-0 10.5-0 11.15-0 11.7 0.42 11.91 1 11.91 1 13.59 1 13.59 1 13.8 0.42 14.35-0 15-0 15.65-0 16.2 0.42 16.41 1 16.41 1 18.09 1 18.09 1 18.3 0.42 18.85-0 19.5-0 20.15-0 20.7 0.42 20.91 1 20.91 1 22.59 1 22.59 1 22.8 0.42 23.35-0 24-0 24.65-0 25.2 0.42 25.41 1 25.41 1 27.09 1 27.09 1 27.3 0.42 27.85-0 28.5-0 29.33-0 30 0.67 30 1.5 30 2.15 29.58 2.7 29 2.91 29 2.91 29 4.59 29 4.59 29.58 4.8 30 5.35 30 6 30 6.65 29.58 7.2 29 7.41 29 7.41 29 9.09 29 9.09 29.58 9.3 30 9.85 30 10.5 30 11.15 29.58 11.7 29 11.91 29 11.91 29 13.59 29 13.59 29.58 13.8 30 14.35 30 15 30 15.65 29.58 16.2 29 16.41 29 16.41 29 18.09 29 18.09 29.58 18.3 30 18.85 30 19.5 30 20.15 29.58 20.7 29 20.91 29 20.91 29 22.59 29 22.59 29.58 22.8 30 23.35 30 24ZM 26 4C 26 4 4 4 4 4 4 4 4 26 4 26 4 26 26 26 26 26 26 26 26 4 26 4ZM 13 20C 13 20 20 11.5 20 11.5 20 11.5 24.5 18.5 24.5 18.5 24.5 18.5 24.5 24.5 24.5 24.5 24.5 24.5 5.5 24.5 5.5 24.5 5.5 24.5 11.5 18.5 11.5 18.5 11.5 18.5 13 20 13 20ZM 10 13C 8.34 13 7 11.65 7 10 7 8.34 8.34 7 10 7 11.66 7 13 8.34 13 10 13 11.65 11.66 13 10 13Z" fill="rgb(149,225,211)"/></svg>