<?xml version="1.0" encoding="utf-8"?>
<svg xmlns="http://www.w3.org/2000/svg"
	xmlns:xlink="http://www.w3.org/1999/xlink"
	width="63px" height="61px" viewBox="0 0 63 61">
<path fillRule="evenodd" d="M 60 36C 60 36 59.1 36 59.1 36 59.1 36 59.1 36 59.1 36 59.1 36 58 36 58 36 58 36 58 41 58 41 58 41 58 41 58 41 58 41.2 57.98 41.41 57.94 41.6 57.91 41.74 57.86 41.87 57.82 42 57.8 42.05 57.79 42.11 57.76 42.17 57.72 42.28 57.65 42.39 57.59 42.49 57.55 42.55 57.53 42.62 57.49 42.68 57.39 42.82 57.28 42.95 57.15 43.08 57.14 43.09 57.13 43.11 57.12 43.12 56.59 43.65 55.85 43.98 55.04 43.99 55.02 43.99 55.01 44 55 44 55 44 55 44 55 44 55 44 55 44 55 44 54.17 44 53.42 43.66 52.88 43.12 52.88 43.12 45.76 36 45.76 36 45.76 36 45.4 36 45.4 36 45.4 36 45.4 36 45.4 36 45.4 36 18 36 18 36 16.34 36 15 34.66 15 33 15 33 15 3 15 3 15 1.34 16.34-0 18-0 18-0 60-0 60-0 61.66-0 63 1.34 63 3 63 3 63 33 63 33 63 34.66 61.66 36 60 36ZM 44.51 39C 44.51 39 50.84 45.32 50.84 45.32 50.84 45.32 50.85 45.32 50.85 45.32 51.93 46.35 53.39 47 55 47 55 47 55 49 55 49 55 50.66 53.66 52 52 52 52 52 52 52 52 52 52 52 30.9 52 30.9 52 30.9 52 30.9 52 30.9 52 30.9 52 24 52 24 52 24 52 24 52 24 52 24 52 21 52 21 52 21 52 21 52 21 52 21 52 20.24 52 20.24 52 20.24 52 12.12 60.12 12.12 60.12 11.58 60.66 10.83 61 10 61 10 61 10 61 10 61 10 61 10 61 10 61 9.99 61 9.98 60.99 9.96 60.99 9.15 60.98 8.41 60.65 7.88 60.12 7.87 60.11 7.86 60.09 7.85 60.08 7.72 59.95 7.61 59.82 7.51 59.67 7.47 59.62 7.45 59.55 7.41 59.49 7.35 59.38 7.28 59.28 7.24 59.17 7.21 59.11 7.2 59.05 7.18 59 7.14 58.87 7.09 58.74 7.06 58.6 7.02 58.41 7 58.21 7 58 7 58 7 58 7 58 7 58 7 52 7 52 7 52 6.5 52 6.5 52 6.5 52 6.5 52 6.5 52 6.5 52 3 52 3 52 1.34 52 0 50.65 0 49 0 49 0 15 0 15 0 15 0 15 0 15 0 13.34 1.34 12 3 12 3 12 12 12 12 12 12 12 12 33 12 33 12 36.31 14.69 39 18 39 18 39 44.51 39 44.51 39Z" fill="rgb(149,225,211)"/></svg>